<svg width="32" height="32" xmlns="http://www.w3.org/2000/svg">
 <title/>
 <desc/>

 <g>
  <title>background</title>
  <rect fill="none" id="canvas_background" height="402" width="582" y="-1" x="-1"/>
 </g>
 <g>
  <title fill="#707070">Layer 1</title>
  <path fill="#707070" id="search" d="m19.42712,21.42712c-1.38987,0.99036 -3.09047,1.57288 -4.92712,1.57288c-4.69442,0 -8.5,-3.80558 -8.5,-8.5c0,-4.69442 3.80558,-8.5 8.5,-8.5c4.69442,0 8.5,3.80558 8.5,8.5c0,1.83665 -0.58252,3.53725 -1.57288,4.92712l5.5848,5.5848c0.5502,0.5502 0.54561,1.43055 -0.0002,1.97636l-0.02344,0.02344c-0.54442,0.54442 -1.43066,0.5459 -1.97636,0.0002l-5.5848,-5.5848l0,0zm-4.92712,-0.42712c3.58985,0 6.5,-2.91015 6.5,-6.5c0,-3.58985 -2.91015,-6.5 -6.5,-6.5c-3.58985,0 -6.5,2.91015 -6.5,6.5c0,3.58985 2.91015,6.5 6.5,6.5l0,0z"/>
 </g>
</svg>