<svg width="28" height="28" xmlns="http://www.w3.org/2000/svg">

 <g>
  <title>background</title>
  <rect fill="none" id="canvas_background" height="402" width="582" y="-1" x="-1"/>
 </g>
 <g>
  <title fill="#707070">Layer 1</title>
  <path id="svg_1" fill="#707070" d="m8,7.29805c0,-0.44183 0.35817,-0.8 0.8,-0.8l16.4,0c0.4418,0 0.8,0.35817 0.8,0.8l0,0.4c0,0.44182 -0.3582,0.8 -0.8,0.8l-16.4,0c-0.44183,0 -0.8,-0.35818 -0.8,-0.8l0,-0.4z"/>
  <path id="svg_2" fill="#707070" d="m8,21.298c0,-0.4418 0.35817,-0.8 0.8,-0.8l16.4,0c0.4418,0 0.8,0.3582 0.8,0.8l0,0.4c0,0.4419 -0.3582,0.8 -0.8,0.8l-16.4,0c-0.44183,0 -0.8,-0.3581 -0.8,-0.8l0,-0.4z"/>
  <path id="svg_3" fill="#707070" d="m8,14.298c0,-0.4418 0.35817,-0.8 0.8,-0.8l16.4,0c0.4418,0 0.8,0.3582 0.8,0.8l0,0.4c0,0.4419 -0.3582,0.8 -0.8,0.8l-16.4,0c-0.44183,0 -0.8,-0.3581 -0.8,-0.8l0,-0.4z"/>
  <path id="svg_4" fill="#707070" d="m5,7.5c0,0.82843 -0.67157,1.5 -1.5,1.5c-0.82843,0 -1.5,-0.67157 -1.5,-1.5c0,-0.82843 0.67157,-1.5 1.5,-1.5c0.82843,0 1.5,0.67157 1.5,1.5z"/>
  <path id="svg_5" fill="#707070" d="m5,21.498c0,0.8285 -0.67157,1.5 -1.5,1.5c-0.82843,0 -1.5,-0.6715 -1.5,-1.5c0,-0.8284 0.67157,-1.5 1.5,-1.5c0.82843,0 1.5,0.6716 1.5,1.5z"/>
  <path id="svg_6" fill="#707070" d="m5,14.498c0,0.8285 -0.67157,1.5 -1.5,1.5c-0.82843,0 -1.5,-0.6715 -1.5,-1.5c0,-0.8284 0.67157,-1.5 1.5,-1.5c0.82843,0 1.5,0.6716 1.5,1.5z"/>
 </g>
</svg>