<svg width="128" height="128" xmlns="http://www.w3.org/2000/svg">

 <g>
  <title>background</title>
  <rect fill="none" id="canvas_background" height="402" width="582" y="-1" x="-1"/>
 </g>
 <g>
  <title fill="#777777">Layer 1</title>
  <path fill="#777777" id="svg_2" d="m94,81c9.4,0 17,-7.6 17,-17s-7.6,-17 -17,-17c-4.8,0 -9.1,2 -12.2,5.2l-31.5,-18.3c0.5,-1.5 0.7,-3.2 0.7,-4.9c0,-9.4 -7.6,-17 -17,-17s-17,7.6 -17,17s7.6,17 17,17c4.8,0 9.1,-2 12.2,-5.2l31.5,18.4c-0.4,1.5 -0.7,3.1 -0.7,4.8s0.3,3.3 0.7,4.9l-31.5,18.3c-3.1,-3.2 -7.4,-5.2 -12.2,-5.2c-9.4,0 -17,7.6 -17,17s7.6,17 17,17s17,-7.6 17,-17c0,-1.7 -0.3,-3.3 -0.7,-4.9l31.5,-18.4c3.1,3.3 7.4,5.3 12.2,5.3zm0,-26c5,0 9,4 9,9s-4,9 -9,9s-9,-4 -9,-9s4,-9 9,-9zm-60,-17c-5,0 -9,-4 -9,-9s4,-9 9,-9s9,4 9,9s-4,9 -9,9zm0,70c-5,0 -9,-4 -9,-9s4,-9 9,-9s9,4 9,9s-4,9 -9,9z"/>
 </g>
</svg>