<svg width="32" height="32" xmlns="http://www.w3.org/2000/svg">

 <title/>
 <g>
  <title>background</title>
  <rect fill="none" id="canvas_background" height="402" width="582" y="-1" x="-1"/>
 </g>
 <g>
  <title fill="#707070">Layer 1</title>
  <path fill="#707070" id="svg_1" d="m16,31a5,5 0 0 1 -5,-5a1,1 0 0 1 2,0a3,3 0 0 0 0.88,2.12a3.06,3.06 0 0 0 4.24,0a1,1 0 0 1 1.42,1.42a5,5 0 0 1 -3.54,1.46z" class="cls-1"/>
  <path fill="#707070" id="svg_2" d="m16,6a1,1 0 0 1 -1,-1l0,-3a1,1 0 0 1 2,0l0,3a1,1 0 0 1 -1,1z" class="cls-1"/>
  <rect fill="#707070" id="svg_3" y="-1.615632" x="15.825894" width="2" transform="rotate(-47 16.825893402099616,16.769367218017578) " height="36.77" class="cls-1"/>
  <path fill="#707070" id="svg_4" d="m26.73,27l-21.73,0a1,1 0 0 1 -0.89,-1.45a18.08,18.08 0 0 0 1.89,-8l0,-3.55a8,8 0 0 1 0.06,-1a1,1 0 1 1 2,0.28a6,6 0 0 0 -0.06,0.72l0,3.53a20.07,20.07 0 0 1 -1.45,7.47l20.18,0a1,1 0 1 1 0,2z" class="cls-1"/>
  <path fill="#707070" id="svg_5" d="m25.06,20a1,1 0 0 1 -1,-0.92q-0.06,-0.77 -0.06,-1.55l0,-3.53a8,8 0 0 0 -12.07,-6.88a7.66,7.66 0 0 0 -2.58,2.45a1,1 0 1 1 -1.68,-1.1a9.74,9.74 0 0 1 3.25,-3.07a9.95,9.95 0 0 1 12.15,1.54a9.86,9.86 0 0 1 2.93,7.06l0,3.53c0,0.46 0,0.91 0.06,1.37a1,1 0 0 1 -0.92,1.1l-0.08,0z" class="cls-1"/>
 </g>
</svg>