<svg width="48" height="48" xmlns="http://www.w3.org/2000/svg">

 <g>
  <title>background</title>
  <rect fill="none" id="canvas_background" height="402" width="582" y="-1" x="-1"/>
 </g>
 <g>
  <title fill="#707070">Layer 1</title>
  <path fill="#707070" id="svg_2" d="m43,46l-10,0c-1.7,0 -3,-1.3 -3,-3l0,-15c0,-0.6 -0.4,-1 -1,-1l-10,0c-0.6,0 -1,0.4 -1,1l0,15c0,1.7 -1.3,3 -3,3l-10,0c-1.7,0 -3,-1.3 -3,-3l0,-18.2c0,-0.8 0.3,-1.5 0.9,-2.1l19,-19c1.2,-1.2 3,-1.2 4.2,0l19,19c0.6,0.6 0.9,1.3 0.9,2.1l0,18.2c0,1.7 -1.3,3 -3,3zm-24,-21l10,0c1.7,0 3,1.3 3,3l0,15c0,0.6 0.4,1 1,1l10,0c0.6,0 1,-0.4 1,-1l0,-18.2c0,-0.3 -0.1,-0.5 -0.3,-0.7l-19,-19c-0.4,-0.4 -1,-0.4 -1.4,0l-19,19c-0.2,0.2 -0.3,0.4 -0.3,0.7l0,18.2c0,0.6 0.4,1 1,1l10,0c0.6,0 1,-0.4 1,-1l0,-15c0,-1.7 1.3,-3 3,-3z"/>
 </g>
</svg>