<svg width="512" height="512" xmlns="http://www.w3.org/2000/svg">
 <title/>

 <g>
  <title>background</title>
  <rect fill="none" id="canvas_background" height="402" width="582" y="-1" x="-1"/>
 </g>
 <g>
  <title fill="#707070">Layer 1</title>
  <path fill="#707070" id="svg_1" d="m380,450l-237,0a15,15 0 0 1 -15,-15l0,-221.34a15,15 0 0 1 15,-15l237,0a15,15 0 0 1 15,15l0,221.34a15,15 0 0 1 -15,15zm-222,-30l207,0l0,-191.34l-207,0l0,191.34z"/>
  <path fill="#707070" id="svg_2" d="m351.66,228.66l-180.25,0a15,15 0 0 1 0,-30l165.25,0l0,-45.54a75.13,75.13 0 0 0 -150.25,0a15,15 0 0 1 -30,0a105.13,105.13 0 0 1 210.25,0l0,60.54a15,15 0 0 1 -15,15z"/>
  <path fill="#707070" id="svg_3" d="m261.54,352.67a46.5,46.5 0 1 1 46.5,-46.5a46.55,46.55 0 0 1 -46.5,46.5zm0,-63a16.5,16.5 0 1 0 16.5,16.5a16.52,16.52 0 0 0 -16.5,-16.5z"/>
  <path fill="#707070" id="svg_4" d="m261.54,389a15,15 0 0 1 -15,-15l0,-36.33a15,15 0 1 1 30,0l0,36.33a15,15 0 0 1 -15,15z"/>
 </g>
</svg>